<svg width="20" height="20" viewBox="0 0 20 20" xmlns="http://www.w3.org/2000/svg">
<g clip-path="url(#clip0)">
<path d="M18.7773 8.92969H1.23047C0.789062 8.92969 0.433594 8.57422 0.433594 8.13281V6.97266C0.433594 3.36328 3.36719 0.429688 6.97266 0.429688H13.0312C16.6367 0.429688 19.5742 3.36328 19.5742 6.97266V8.13281C19.5742 8.57031 19.2148 8.92969 18.7773 8.92969ZM2.02734 7.33203H17.9766V6.96875C17.9766 4.24219 15.7578 2.02344 13.0312 2.02344H6.97266C4.24609 2.02344 2.02734 4.24219 2.02734 6.96875V7.33203Z"/>
<path d="M17.0078 19.5703H2.99609C1.58203 19.5703 0.433594 18.4219 0.433594 17.0078V14.8906C0.433594 14.4492 0.789062 14.0938 1.23047 14.0938H18.7734C19.2148 14.0938 19.5703 14.4492 19.5703 14.8906V17.0078C19.5742 18.4219 18.4219 19.5703 17.0078 19.5703ZM2.02734 15.6875V17.0078C2.02734 17.543 2.46094 17.9766 2.99609 17.9766H17.0078C17.543 17.9766 17.9766 17.543 17.9766 17.0078V15.6875H2.02734Z"/>
<rect y="10" width="20" height="3" rx="1"/>
</g>
<defs>
<clipPath id="clip0">
<rect width="20" height="20"/>
</clipPath>
</defs>
</svg>
