<svg width="20" height="20" viewBox="0 0 20 20" xmlns="http://www.w3.org/2000/svg">
<g clip-path="url(#clip0)">
<path d="M0 13.6337C0 14.1097 0.539375 14.3867 0.926211 14.1107L4.14773 11.8125C4.41793 11.6198 4.73621 11.5179 5.06816 11.5179H12.1534C13.4006 11.5179 14.4152 10.5033 14.4152 9.25612V1.82132C14.4152 1.49773 14.1529 1.23538 13.8293 1.23538H2.2618C1.01465 1.23538 0 2.24999 0 3.49718L0 13.6337ZM1.17188 3.49718C1.17188 2.89616 1.66082 2.40726 2.2618 2.40726H13.2433V9.25612C13.2433 9.85714 12.7543 10.346 12.1534 10.346H5.06813C4.49078 10.346 3.93719 10.5233 3.46719 10.8585L1.17188 12.4959V3.49718Z"/>
<path d="M19.9621 8.04335V18.1797C19.9621 18.6565 19.4219 18.9323 19.0359 18.6566L15.8145 16.3586C15.5441 16.166 15.2262 16.0641 14.8941 16.0641H7.80859C6.56133 16.0641 5.54688 15.0492 5.54688 13.8019V12.691H12.1156C14.009 12.691 15.5492 11.1508 15.5492 9.25741V5.78124H17.7004C18.9477 5.78124 19.9621 6.79609 19.9621 8.04335Z"/>
<path d="M4.21338 5.59919H10.9831C11.3067 5.59919 11.569 5.33685 11.569 5.01325C11.569 4.68966 11.3067 4.42731 10.9831 4.42731H4.21338C3.88979 4.42731 3.62744 4.68966 3.62744 5.01325C3.62744 5.33685 3.88979 5.59919 4.21338 5.59919Z"/>
<path d="M4.21338 8.33355H10.9831C11.3067 8.33355 11.569 8.0712 11.569 7.74761C11.569 7.42401 11.3067 7.16167 10.9831 7.16167H4.21338C3.88979 7.16167 3.62744 7.42401 3.62744 7.74761C3.62744 8.0712 3.88979 8.33355 4.21338 8.33355Z"/>
</g>
<defs>
<clipPath id="clip0">
<rect width="20" height="20"/>
</clipPath>
</defs>
</svg>
