<svg width="20" height="20" viewBox="0 0 20 20"xmlns="http://www.w3.org/2000/svg">
<g clip-path="url(#clip0)">
<path d="M3.55488 8.14453V19.414C3.55488 19.7376 3.81721 20 4.14079 20C4.46438 20 4.72671 19.7376 4.72671 19.414V8.14453C6.06206 7.8724 7.06999 6.68907 7.07038 5.27467C7.07038 5.27439 7.07042 5.27416 7.07042 5.27393C7.07042 5.27381 7.07042 5.27369 7.07042 5.27354V0.586582C7.07042 0.262999 6.80809 0.000663757 6.48451 0.000663757C6.16092 0.000663757 5.89859 0.262999 5.89859 0.586582V4.68801H4.72675V0.586582C4.72675 0.262999 4.46442 0.000663757 4.14083 0.000663757C3.81725 0.000663757 3.55492 0.262999 3.55492 0.586582V4.68801H2.38308V0.586582C2.38308 0.262999 2.12074 0.000663757 1.79716 0.000663757C1.47358 0.000663757 1.21124 0.262999 1.21124 0.586582V5.27393C1.2112 6.68868 2.21933 7.87236 3.55488 8.14453ZM5.79777 5.85945C5.5559 6.54181 4.90464 7.03168 4.14079 7.03168C3.37695 7.03168 2.72568 6.54181 2.48382 5.85945H5.79777Z"/>
<path d="M10.5859 11.6601V19.4141C10.5859 19.7377 10.8482 20 11.1718 20C11.4954 20 11.7577 19.7377 11.7577 19.4141C11.7577 18.7695 11.7577 2.70405 11.7577 0.586579C11.7577 0.151906 11.2992 -0.132265 10.9098 0.0625335C9.27567 0.879578 8.24219 2.55003 8.24219 4.37872V8.78944C8.24219 10.2042 9.25032 11.3879 10.5859 11.6601ZM9.41402 4.37872C9.41402 3.3372 9.8467 2.37437 10.5859 1.6944V10.4468C9.90381 10.2049 9.41402 9.55333 9.41402 8.7894V4.37872Z"/>
<path d="M9.5 3.5L10.5 1.5H11V11L9 9.5L9.5 3.5Z"/>
<path d="M15.2732 8.12438V19.4141C15.2732 19.7377 15.5356 20 15.8592 20C16.1827 20 16.4451 19.7377 16.4451 19.4141V8.12438C18.0062 7.69584 18.7887 5.76473 18.7887 4.10209C18.7887 2.15235 17.7222 0.000663757 15.8592 0.000663757C13.9915 0.000663757 12.9296 2.15958 12.9296 4.10209C12.9296 5.7575 13.7078 7.69467 15.2732 8.12438ZM15.8592 1.1725C16.812 1.1725 17.6169 2.5141 17.6169 4.10209C17.6169 5.69008 16.812 7.03168 15.8592 7.03168C14.9063 7.03168 14.1014 5.69008 14.1014 4.10209C14.1014 2.5141 14.9064 1.1725 15.8592 1.1725Z"/>
</g>
<defs>
<clipPath id="clip0">
<rect width="20" height="20"/>
</clipPath>
</defs>
</svg>
