<svg width="20" height="20" viewBox="0 0 20 20" xmlns="http://www.w3.org/2000/svg">
<path d="M10 0C5.78354 0 2.35291 3.43063 2.35291 7.64709V14.7058C2.35291 15.679 3.14453 16.4706 4.11758 16.4706C5.09079 16.4706 5.88242 15.679 5.88242 14.7058V8.82355C5.88242 7.85049 5.09079 7.05887 4.11758 7.05887C3.91953 7.05887 3.73215 7.099 3.55408 7.15942C3.80508 3.81912 6.59714 1.17645 10 1.17645C13.401 1.17645 16.1923 3.81668 16.4456 7.15469C16.2686 7.09412 16.0802 7.05887 15.8824 7.05887C14.9092 7.05887 14.1176 7.85049 14.1176 8.82355V14.7058C14.1176 15.679 14.9092 16.4706 15.8824 16.4706C16.0896 16.4706 16.2857 16.4282 16.4706 16.3623V17.0589C16.4706 17.3834 16.2064 17.6471 15.8824 17.6471H11.6563C11.4127 16.9638 10.7658 16.4706 10 16.4706C9.02695 16.4706 8.23532 17.2623 8.23532 18.2353C8.23532 19.2084 9.02695 20 10 20C10.7658 20 11.4127 19.5067 11.6563 18.8235H15.8824C16.8555 18.8235 17.6471 18.0319 17.6471 17.0589C17.6471 13.5207 17.6471 11.1891 17.6471 7.64709C17.6471 3.43063 14.2165 0 10 0V0Z"/>
<path d="M18.8235 8.34366V15.1857C19.5067 14.9422 20 14.2953 20 13.5294V10C20 9.23416 19.5067 8.58734 18.8235 8.34366Z"/>
<path d="M0 10V13.5294C0 14.2953 0.493317 14.9422 1.17645 15.1857V8.34366C0.493317 8.58734 0 9.23416 0 10Z"/>
</svg>
